<?xml version="1.0" standalone="no"?>
<!DOCTYPE svg PUBLIC "-//W3C//DTD SVG 20010904//EN"
 "http://www.w3.org/TR/2001/REC-SVG-20010904/DTD/svg10.dtd">
<svg version="1.0" xmlns="http://www.w3.org/2000/svg"
 width="512.000000pt" height="512.000000pt" viewBox="0 0 512.000000 512.000000"
 preserveAspectRatio="xMidYMid meet">
<metadata>
Created by potrace 1.14, written by Peter Selinger 2001-2017
</metadata>
<g transform="translate(0.000000,512.000000) scale(0.100000,-0.100000)"
fill="#000000" stroke="none">
<path d="M2368 4955 c-2 -1 -37 -6 -77 -9 -41 -4 -77 -9 -80 -11 -4 -1 -28 -6
-56 -10 -69 -9 -233 -48 -335 -80 -355 -112 -713 -335 -975 -607 -117 -121
-132 -139 -206 -238 -241 -324 -393 -685 -450 -1065 -5 -38 -12 -83 -15 -100
-9 -53 -12 -428 -4 -500 16 -133 22 -170 45 -280 164 -767 731 -1435 1455
-1715 47 -18 94 -37 105 -41 93 -39 356 -98 524 -117 87 -9 449 -8 531 2 491
61 950 266 1312 588 107 94 243 238 286 299 9 13 19 26 22 29 14 12 110 152
154 224 171 282 276 580 326 927 15 109 18 174 15 349 -2 118 -6 226 -9 240
-2 14 -7 48 -11 75 -3 28 -8 57 -10 65 -2 8 -7 31 -10 50 -12 72 -56 233 -91
332 -32 91 -161 369 -196 423 -164 251 -217 317 -382 480 -120 119 -291 259
-358 294 -16 8 -28 18 -28 23 0 4 -5 8 -12 8 -6 0 -19 6 -27 14 -30 26 -217
122 -327 168 -104 44 -276 102 -325 112 -13 2 -42 9 -64 14 -22 6 -56 14 -75
17 -19 3 -42 8 -50 10 -8 2 -39 7 -69 10 -30 4 -63 9 -75 12 -22 5 -452 13
-458 8z"/>
</g>
</svg>
